<?xml version="1.0" encoding="utf-8"?>
<!-- Generator: Adobe Illustrator 21.1.0, SVG Export Plug-In . SVG Version: 6.00 Build 0)  -->
<svg version="1.1" id="Capa_1" xmlns="http://www.w3.org/2000/svg" xmlns:xlink="http://www.w3.org/1999/xlink" x="0px" y="0px"
	 viewBox="0 0 621.2 173" style="enable-background:new 0 0 621.2 173;" xml:space="preserve">
<style type="text/css">
	.st0{opacity:0.98;}
	.st1{fill:#FFFFFF;}
</style>
<g class="st0">
	<g>
		<path class="st1" d="M62.9,172.9c0,0-0.1,0-0.1,0c0,0-0.1,0-0.1,0H62.9z"/>
		<path class="st1" d="M125.3,105c0-34.5-28.1-62.5-62.7-62.5C28.1,42.6,0,70.5,0,105c0,0,0.2,29.1,27.2,59c0,0,7.4,8.9,18.7,9
			c0,0,2.8-0.1,4.7-0.9c0,0,3.5-2.1,8.2-0.1c0,0,1.6,0.9,4,0.9c2.4,0,4-0.9,4-0.9c4.7-2,8.2,0.1,8.2,0.1c1.8,0.8,4.7,0.9,4.7,0.9
			c11.2-0.1,18.6-9,18.6-9C125.2,134.2,125.3,105,125.3,105L125.3,105z M104,139.7c0,5.1-4.2,9.3-9.3,9.3c-2,0-3.8-0.6-5.3-1.6
			c-0.2-0.1-0.3-0.2-0.4-0.3l0-0.1l0,0L39,96.8v42.9c0,5.1-4.2,9.3-9.3,9.3c-5.1,0-9.3-4.2-9.3-9.3V78c0-5.1,4.2-9.3,9.3-9.3
			c2.5,0,4.7,1,6.4,2.5l49.4,49.5V78c0-5.1,4.2-9.3,9.3-9.3c5.1,0,9.3,4.2,9.3,9.3V139.7z"/>
	</g>
	<path class="st1" d="M64.2,38.8c0,0-5.4-13.9-21.8-27.6c0,0-5.6,0.1-6.2,4.6c0,0,13.6,4.2,20.9,20.7C57.1,36.5,62.8,38.5,64.2,38.8
		z"/>
	<circle class="st1" cx="65.5" cy="15" r="6.5"/>
	<g>
		<path class="st1" d="M110.8,0.8c-18-2.9-27.3,5.7-27.3,5.7c-9.7,8.9-5.3,16.1-5.3,16.1c0.3,0.9,0.2,2.1,0.1,2.8
			c2.4-10.5,12.6-13.5,19.7-15.1c7.2-1.6,26.7-1.4,26.7-1.4c-3.5,2.1-15.3,3.5-15.3,3.5C79,17.5,77,39.3,77,39.3s1.5-1.1,2.6-3.2
			c1.1-2.1,1.9-3.1,1.9-3.1c1.3,1.3,2.7,0.4,2.7,0.4c0.9-0.6,3.4,0.2,3.4,0.2C116.3,41.2,137.2,0,137.2,0
			C131.3,3.8,128.8,3.8,110.8,0.8z M82.6,13.9c5.2-14.6,30-9.5,30-9.5C91.4,3.9,82.6,13.9,82.6,13.9z M120.3,20.7
			C106.1,33.4,95,31.1,95,31.1c19.9-3.3,32.2-21,32.2-21C127.6,14.4,120.3,20.7,120.3,20.7z"/>
		<path class="st1" d="M78.2,25.4c-0.1,0.2-0.1,0.5-0.1,0.7C78.1,26.1,78.2,25.8,78.2,25.4z"/>
	</g>
	<path class="st1" d="M179.1,79.4c-1.8-3.2-5.2-5.3-9.1-5.3c-5.8,0-10.5,4.7-10.5,10.5v0.2v73.9h12.1V91l27,62.3
		c1.8,3.1,5.2,5.2,9.1,5.2c5.8,0,10.6-4.7,10.6-10.6l0-0.1V74.2H206v69L179.1,79.4z"/>
	<g>
		<circle class="st1" cx="365.8" cy="81.6" r="7.2"/>
		<rect x="360.5" y="95.3" class="st1" width="10.8" height="63.2"/>
	</g>
	<g>
		<circle class="st1" cx="479.8" cy="81.6" r="7.2"/>
		<rect x="474.4" y="95.3" class="st1" width="10.8" height="63.2"/>
	</g>
	<path class="st1" d="M270.4,147.8c0,0,5-0.1,5.4-4.1V95.3h10.8v49.1h0c0,0,0.4,14.2-16.2,14.2h-20.6c-16.6,0-16.2-14.2-16.2-14.2
		s0,0,0,0V95.3h10.8v48.4c0.4,4,5.4,4.1,5.4,4.1H270.4z"/>
	<path class="st1" d="M443.4,95.3H436c-7,0-11,2.6-13.3,5.5c-2.3-2.9-6.2-5.5-13.3-5.5h-7.3c-16.6,0-16.2,14.2-16.2,14.2s0,0,0,0
		v49.1h10.8v-48.4c0.4-4,5.4-4.1,5.4-4.1h10.5c0,0,5,0.1,5.4,4.1v48.4h0h10.8h0v-48.4c0.4-4,5.4-4.1,5.4-4.1h9c0,0,5,0.1,5.4,4.1
		v48.4h10.8v-49.1l0,0C459.6,109.5,460,95.3,443.4,95.3z"/>
	<path class="st1" d="M516.4,106.1c0,0-5,0.1-5.4,4.1v48.4h-10.8v-49.1c0,0,0,0,0,0s-0.4-14.2,16.2-14.2H537
		c16.6,0,16.2,14.2,16.2,14.2s0,0,0,0v49.1h-10.8v-48.4c-0.4-4-5.4-4.1-5.4-4.1H516.4z"/>
	<path class="st1" d="M351.5,95.3h-6.3c-16.6,0-15.6,14.2-15.6,14.2l0,0v49.1h10.8v-48.4c0.4-4,5.4-4.1,5.4-4.1h5.8V95.3z"/>
	<polygon class="st1" points="323.3,95.4 312.2,95.4 312.2,74.1 301.4,74.1 301.4,158.5 312.2,158.5 312.2,105.9 323.3,105.9 	"/>
	<path class="st1" d="M605,95.3h-20.6c-16.6,0-16.2,14.2-16.2,14.2l0,0v4.4v25.2v5.3h0c0,0-0.4,14.2,16.2,14.2H605
		c16.6,0,16.2-14.2,16.2-14.2s0,0,0,0v-2h0V74.1h-10.8v21.2H605z M610.4,113.9v25.2v4.6c-0.4,4-5.4,4.1-5.4,4.1h-20.6
		c0,0-5-0.1-5.4-4.1v-4.6v-25.2v-3.7c0.4-4,5.4-4.1,5.4-4.1H605c0,0,5,0.1,5.4,4.1V113.9z"/>
</g>
</svg>
